<svg width="28" height="28" viewBox="0 0 28 28" fill="none" xmlns="http://www.w3.org/2000/svg">
<path fill-rule="evenodd" clip-rule="evenodd" d="M15.8177 6.45665C14.802 5.48206 13.1984 5.48206 12.1828 6.45665L6.78526 11.6359C6.65302 11.7628 6.56406 11.9281 6.53101 12.1083C5.88452 15.6338 5.8368 19.2431 6.38985 22.7844L6.52112 23.625H9.99366V16.3785C9.99366 15.8952 10.3854 15.5035 10.8687 15.5035H17.1318C17.6151 15.5035 18.0068 15.8952 18.0068 16.3785V23.625H21.4793L21.6106 22.7844C22.1637 19.2431 22.116 15.6338 21.4695 12.1083C21.4364 11.9281 21.3475 11.7628 21.2152 11.6359L15.8177 6.45665ZM10.9711 5.19394C12.6639 3.56963 15.3366 3.56963 17.0293 5.19394L22.4268 10.3732C22.8242 10.7544 23.0914 11.2511 23.1908 11.7927C23.8727 15.5116 23.9231 19.3188 23.3397 23.0545L23.1288 24.4048C23.0416 24.9633 22.5606 25.375 21.9953 25.375H17.1318C16.6486 25.375 16.2568 24.9833 16.2568 24.5V17.2535H11.7437V24.5C11.7437 24.9833 11.3519 25.375 10.8687 25.375H6.00514C5.43991 25.375 4.95891 24.9633 4.8717 24.4048L4.66081 23.0545C4.07742 19.3188 4.12776 15.5116 4.80971 11.7927C4.90903 11.2511 5.17629 10.7544 5.57362 10.3732L10.9711 5.19394Z" fill="#666666"/>
</svg>
