<svg width="28" height="28" viewBox="0 0 28 28" fill="none" xmlns="http://www.w3.org/2000/svg">
<path d="M14.0002 4.375C11.5839 4.375 9.62516 6.33375 9.62516 8.75C9.62516 11.1662 11.5839 13.125 14.0002 13.125C16.4164 13.125 18.3752 11.1662 18.3752 8.75C18.3752 6.33375 16.4164 4.375 14.0002 4.375Z" fill="#FF3440"/>
<path d="M9.3335 15.4583C6.91725 15.4583 4.9585 17.4171 4.9585 19.8333V21.2197C4.9585 22.0984 5.59536 22.8477 6.46265 22.9893C11.4546 23.8043 16.5457 23.8043 21.5377 22.9893C22.405 22.8477 23.0418 22.0984 23.0418 21.2197V19.8333C23.0418 17.4171 21.0831 15.4583 18.6668 15.4583H18.2691C18.0539 15.4583 17.84 15.4924 17.6354 15.5592L16.6256 15.8889C14.9196 16.446 13.0807 16.446 11.3747 15.8889L10.3649 15.5592C10.1603 15.4924 9.94642 15.4583 9.73118 15.4583H9.3335Z" fill="#FF3440"/>
</svg>
