<svg width="28" height="28" viewBox="0 0 28 28" fill="none" xmlns="http://www.w3.org/2000/svg">
<path fill-rule="evenodd" clip-rule="evenodd" d="M13.9999 4.37463L22.4858 4.61456C23.9852 4.65696 25.2254 5.79522 25.3959 7.28552C25.7734 10.5844 25.7734 13.9156 25.3959 17.2144C25.2254 18.7047 23.9852 19.843 22.4858 19.8854L16.0416 20.0676V22.4583H19.8333C20.3165 22.4583 20.7083 22.8501 20.7083 23.3333C20.7083 23.8166 20.3165 24.2083 19.8333 24.2083H8.1666C7.68335 24.2083 7.2916 23.8166 7.2916 23.3333C7.2916 22.8501 7.68335 22.4583 8.1666 22.4583H11.9583V20.0676L5.51401 19.8854C4.01459 19.843 2.7744 18.7047 2.60389 17.2144C2.22644 13.9156 2.22644 10.5844 2.60389 7.28552C2.7744 5.79522 4.01459 4.65696 5.51401 4.61456L13.9999 4.37463ZM13.9999 6.12533L5.56347 6.36386C4.9344 6.38165 4.41408 6.8592 4.34254 7.48445C3.98022 10.6511 3.98022 13.8488 4.34254 17.0155C4.41408 17.6408 4.9344 18.1183 5.56347 18.1361L13.9999 18.3746L22.4363 18.1361C23.0654 18.1183 23.5857 17.6408 23.6573 17.0155C24.0196 13.8488 24.0196 10.6511 23.6573 7.48445C23.5857 6.8592 23.0654 6.38165 22.4363 6.36386L13.9999 6.12533Z" fill="#666666"/>
</svg>
