<svg width="28" height="28" viewBox="0 0 28 28" fill="none" xmlns="http://www.w3.org/2000/svg">
<path fill-rule="evenodd" clip-rule="evenodd" d="M13.9999 4.37463L22.4858 4.61456C23.9852 4.65696 25.2254 5.79522 25.3959 7.28552C25.7734 10.5844 25.7734 13.9156 25.3959 17.2144C25.2254 18.7047 23.9852 19.843 22.4858 19.8854L15.4583 20.0841V22.4583H19.8333C20.3165 22.4583 20.7083 22.8501 20.7083 23.3333C20.7083 23.8166 20.3165 24.2083 19.8333 24.2083H8.1666C7.68335 24.2083 7.2916 23.8166 7.2916 23.3333C7.2916 22.8501 7.68335 22.4583 8.1666 22.4583H12.5416V20.0841L5.51401 19.8854C4.01459 19.843 2.7744 18.7047 2.60389 17.2144C2.22644 13.9156 2.22644 10.5844 2.60389 7.28552C2.7744 5.79522 4.01459 4.65696 5.51401 4.61456L13.9999 4.37463ZM5.83326 16.0417C5.35001 16.0417 4.95826 16.4334 4.95826 16.9167C4.95826 17.3999 5.35001 17.7917 5.83326 17.7917H22.1666C22.6498 17.7917 23.0416 17.3999 23.0416 16.9167C23.0416 16.4334 22.6498 16.0417 22.1666 16.0417H5.83326Z" fill="#FF3440"/>
</svg>
